# xmcd
#
# Track frame offsets: 
#        150
#        20510
#        38455
#        54803
#        71966
#        92821
#        116358
#        148449
#        169048
#        199433
#        217922
#        236376
#
# Disc length: 3731 seconds
#
# Revision: 0
# Processed by: cddbd v1.5.2PL0 Copyright (c) Steve Scherf et al.
# Submitted via: ExactAudioCopy v1.0b1
#
DISCID=a60e910c
DTITLE=Retale - Mindfuck
DYEAR=2011
DGENRE=Hip-Hop
TTITLE0=Mindfuck Intro
TTITLE1=Candyman
TTITLE2=Asiaintila
TTITLE3=Vaihda Kanavaa
TTITLE4=Peksi Ja Masa
TTITLE5=Mustavalkosta
TTITLE6=Juokse (feat. Aabram Kylm‰, Efta and Freestyle Rayo)
TTITLE7=Ilman Patoutumia (feat. Steen1)
TTITLE8=Prepaidj‰b‰ (feat. Notkea Rotta, Puukko-B and Rohtori Laine)
TTITLE9=Faija Heitti Femman
TTITLE10=Kun En En‰‰ Her‰‰
TTITLE11=Exclusive KGP Support (feat. Sirpa, Rautavaaran Jaska, Navett
TTITLE11=a-Timppa, Purtsi, Puoskari, Booris Jr and Puukko-Allu)
EXTD=
EXTT0=
EXTT1=
EXTT2=
EXTT3=
EXTT4=
EXTT5=
EXTT6=
EXTT7=
EXTT8=
EXTT9=
EXTT10=
EXTT11=
PLAYORDER=
